<?xml version="1.0" encoding="utf-8"?>
<!-- Generator: Adobe Illustrator 15.1.0, SVG Export Plug-In . SVG Version: 6.00 Build 0)  -->
<!DOCTYPE svg PUBLIC "-//W3C//DTD SVG 1.1//EN" "http://www.w3.org/Graphics/SVG/1.1/DTD/svg11.dtd">
<svg version="1.1" id="Layer_1" xmlns:sketch="http://www.bohemiancoding.com/sketch/ns"
	 xmlns="http://www.w3.org/2000/svg" xmlns:xlink="http://www.w3.org/1999/xlink" x="0px" y="0px" width="22px" height="11px"
	 viewBox="0 0 22 11" enable-background="new 0 0 22 11" xml:space="preserve">
<title></title>
<path id="path-1" fill="#FFFFFF" d="M0.577,0C0.258,0,0,0.222,0,0.5C0,0.776,0.262,1,0.577,1h20.846C21.742,1,22,0.778,22,0.5
	C22,0.224,21.738,0,21.423,0H0.577L0.577,0z M0.577,5C0.258,5,0,5.222,0,5.5C0,5.776,0.262,6,0.577,6h20.846
	C21.742,6,22,5.778,22,5.5C22,5.224,21.738,5,21.423,5H0.577L0.577,5z M0.577,10C0.258,10,0,10.222,0,10.5
	C0,10.776,0.262,11,0.577,11h20.846C21.742,11,22,10.778,22,10.5c0-0.276-0.262-0.5-0.577-0.5H0.577L0.577,10z"/>
<path id="path-1_1_" fill="none" d="M0.577,0C0.258,0,0,0.222,0,0.5C0,0.776,0.262,1,0.577,1h20.846C21.742,1,22,0.778,22,0.5
	C22,0.224,21.738,0,21.423,0H0.577L0.577,0z M0.577,5C0.258,5,0,5.222,0,5.5C0,5.776,0.262,6,0.577,6h20.846
	C21.742,6,22,5.778,22,5.5C22,5.224,21.738,5,21.423,5H0.577L0.577,5z M0.577,10C0.258,10,0,10.222,0,10.5
	C0,10.776,0.262,11,0.577,11h20.846C21.742,11,22,10.778,22,10.5c0-0.276-0.262-0.5-0.577-0.5H0.577L0.577,10z"/>
</svg>
